<?xml version="1.0" encoding="utf-8"?>
<!-- Generator: Adobe Illustrator 24.2.3, SVG Export Plug-In . SVG Version: 6.00 Build 0)  -->
<svg version="1.1" id="Layer_1" xmlns="http://www.w3.org/2000/svg" xmlns:xlink="http://www.w3.org/1999/xlink" x="0px" y="0px"
	 viewBox="0 0 4405.7 3423.7" style="enable-background:new 0 0 4405.7 3423.7;" xml:space="preserve">
<style type="text/css">
	.st0{opacity:0.55;}
	.st1{opacity:0.75;fill-rule:evenodd;clip-rule:evenodd;fill:#157029;enable-background:new    ;}
	.st2{opacity:0.8;fill-rule:evenodd;clip-rule:evenodd;fill:#008B1F;enable-background:new    ;}
	.st3{opacity:0.81;fill-rule:evenodd;clip-rule:evenodd;fill:#136600;enable-background:new    ;}
	.st4{opacity:0.75;fill-rule:evenodd;clip-rule:evenodd;fill:#006500;enable-background:new    ;}
</style>
<g id="Layer_1_1_">
	<g id="Design" class="st0">
		<path id="Shape" class="st1" d="M1908.7,1837.2l-666.9,419.7l136.1,297.2L1908.7,1837.2 M1901.9,1836.4L1157.1,2072l82.9,181
			L1901.9,1836.4 M1236.4,2255.3l-81.7-178.4l-44.2,257.6L1236.4,2255.3 M1372,2551.1l-133.7-292l-128.7,81l-0.1,0.5l0,0l-0.4,2.3
			l33.1,26.2L1372,2551.1 M1373.1,2557.5l-264.9-209.8L1051,2664L1373.1,2557.5 M1373.1,2562l-323,106.8l-133.3,737.5L1373.1,2562
			 M1905.3,1830.9l-881.6-49.9l130.9,285.7l1.8,0.3l-0.1,0.8L1905.3,1830.9 M893.7,2723.4l-0.5-0.5l20.8,675.9l131.7-728.6
			l-152,50.3V2723.4 M1104.5,2344.8l-3.2-2.5L883,2383.4l10.5,332.9l153-50.6L1104.5,2344.8 M1151,2074l-272.7,86.3l224,177.4
			l3.5-0.7L1151,2074 M1151.3,2069.4L1020.5,1784l-143.1,372.1L1151.3,2069.4 M1096.8,2338.7L876,2163.9l6.8,215L1096.8,2338.7
			 M888.6,2723.5h-3.8l-180.9,59.8L910,3404.5l-21-682.4l-0.4,0.1V2723.5 M871.3,2723.5l-187.5-0.6l18.7,56.4L871.3,2723.5
			 M878.5,2379.8l-6.6-215.5l-273.8,268.2L878.5,2379.8 M887.8,2718l-295.3-270.3l89.9,270.9l201.8,0.6L887.8,2718 M888.7,2713.1
			l-10.1-329l-286.1,53.8l-2.2,2.1L888.7,2713.1 M907.2,3409.5l-207.3-624.8l-259.7,85.9L907.2,3409.5 M867.5,2162.6l-490.5,82
			L584.9,2435l5.7-1.1L867.5,2162.6 M698.5,2780.6l-19.1-57.7l-368.2-1.1L437.1,2867L698.5,2780.6 M678,2718.6l-91.2-275
			l-279.5,273.7l0.2,0.2L678,2718.6 M904.1,3412.4L435.8,2872L52.6,2998.7L904.1,3412.4 M584.2,2440.1L373,2246.8L33.9,2979.3
			L584.2,2440.1 M432.7,2868.5l-128.4-148.2L30.8,2988.2l16.3,7.9L432.7,2868.5 M784.8,3359.2L46.7,3000.7l-35,11.6L784.8,3359.2
			 M0,3011.7l41.2-13.6l-17.8-8.6l1.9-1.9l344.3-743.7l-2.1-1.9l504.7-84.4l147.9-384.3l1.5,3.3l895.1,50.7l5.8-1.9l-1.6,2.1
			l2.8,0.2l-5.4,3.4l-538.5,727.5l3.2,6.9l-4.9-3.9l-463.6,857.9l0.1,2.8l-0.6-0.3l-0.3,1.7l-2.5-2.9L0,3011.7 M889,2138.1
			c-11.1-7.8-26.5-5.2-34.3,6c-0.2,0.2-0.3,0.4-0.5,0.7c-7.8,11.7-5,27.5,6.4,35.7c11.1,7.8,26.5,5.2,34.3-6
			c0.2-0.2,0.3-0.5,0.5-0.7C903.2,2162.1,900.4,2146.3,889,2138.1L889,2138.1z M892,2366.7c-8.6-6.1-20.6-4-26.7,4.6
			c-0.1,0.2-0.3,0.4-0.4,0.5c-6.1,9.1-3.9,21.3,5,27.7c8.6,6.1,20.6,4,26.7-4.6c0.1-0.2,0.3-0.4,0.4-0.5
			C903,2385.4,900.8,2373.1,892,2366.7L892,2366.7z M608.7,2418.7c-11.5-8.1-27.4-5.3-35.5,6.2c-0.2,0.2-0.3,0.5-0.5,0.7
			c-8.1,12.1-5.2,28.5,6.7,37c11.5,8.1,27.4,5.3,35.5-6.2c0.2-0.2,0.3-0.5,0.5-0.7C623.5,2443.6,620.6,2427.2,608.7,2418.7
			L608.7,2418.7z M1042.6,1760.4c-14.2-10-33.8-6.6-43.7,7.6c-0.2,0.3-0.4,0.6-0.6,0.9c-10,14.9-6.3,35.3,8.2,45.5
			c14.2,10,33.8,6.6,43.7-7.6c0.2-0.3,0.4-0.6,0.6-0.9C1060.8,1791,1057.2,1770.6,1042.6,1760.4L1042.6,1760.4z M382.7,2225.7
			c-11.5-8.1-27.4-5.3-35.5,6.2c-0.2,0.2-0.3,0.5-0.5,0.7c-8.1,12.1-5.2,28.4,6.6,36.9c11.5,8.1,27.4,5.3,35.5-6.2
			c0.2-0.2,0.3-0.5,0.5-0.7C397.4,2250.5,394.5,2234.2,382.7,2225.7L382.7,2225.7z M1118.1,2316.9c-11.5-8.1-27.4-5.3-35.5,6.2
			c-0.2,0.2-0.3,0.5-0.5,0.7c-8.1,12.1-5.2,28.4,6.7,36.9c11.5,8.1,27.4,5.3,35.5-6.2c0.2-0.2,0.3-0.5,0.5-0.7
			C1132.8,2341.7,1129.9,2325.3,1118.1,2316.9z M314.8,2701.8c-9.9-7-23.5-4.6-30.5,5.3c-0.1,0.2-0.3,0.4-0.4,0.6
			c-7,10.4-4.4,24.4,5.7,31.7c9.9,7,23.6,4.6,30.5-5.3c0.1-0.2,0.3-0.4,0.4-0.6C327.5,2723.1,325,2709.1,314.8,2701.8z M1927,1814.6
			c-9.9-7-23.5-4.6-30.5,5.3c-0.1,0.2-0.3,0.4-0.4,0.6c-7,10.4-4.4,24.4,5.7,31.7c9.9,7,23.5,4.6,30.5-5.3c0.1-0.2,0.3-0.4,0.4-0.6
			C1939.7,1835.9,1937.2,1821.9,1927,1814.6L1927,1814.6z M899.9,2703.4c-8.2-5.8-19.6-3.8-25.4,4.4c-0.1,0.2-0.2,0.3-0.3,0.5
			c-5.8,8.6-3.7,20.3,4.8,26.4c8.2,5.8,19.6,3.8,25.4-4.4c0.1-0.2,0.2-0.3,0.3-0.5C910.5,2721.2,908.4,2709.5,899.9,2703.4z"/>
		<path id="Shape_copy" class="st2" d="M2572.7,1229.2l228.7,754.1l322.6-52.8L2572.7,1229.2 M2570.1,1235.6l30.5,780.6l196.5-32.2
			L2570.1,1235.6 M2798.3,1988.1l-193.6,31.7l236.8,110.7L2798.3,1988.1 M3119.5,1935.5l-316.9,51.9l44.1,145.5l0.5,0.2l0,0l2.1,1
			l34-25L3119.5,1935.5 M3125.9,1936.1l-272.3,200.1l290,138.7L3125.9,1936.1 M3130.2,1937.2l17.7,339.7l676.1,323.3L3130.2,1937.2
			 M2565.7,1230.8l-281,837l310.2-50.8l0.8-1.6l0.8,0.3L2565.7,1230.8 M3159.3,2442.3l-0.6,0.3l657.4,158.5l-667.9-319.5l8.4,159.9
			L3159.3,2442.3 M2849.8,2139l-3.3,2.4l-18.1,221.4l323.8,77.8l-8.4-161L2849.8,2139 M2600.9,2022.6l11.2,285.8l230.3-169.2
			l0.3-3.6L2600.9,2022.6 M2596.5,2021.1l-309.8,50.7l321,236.4L2596.5,2021.1 M2841.9,2144.8L2615,2311.6l209.2,50.3L2841.9,2144.8
			 M3157.7,2447.2l-1,3.6l9.9,190.3l653.6-34.7l-663.8-160.1v0.4L3157.7,2447.2 M3153.4,2463.9l-50.1,180.7l59.3-3.2L3153.4,2463.9
			 M2823.8,2366.2l-209.6-50.5l186.4,334.9L2823.8,2366.2 M3152.5,2446.6L2813.8,2660l285-15.1l53.9-194.4L3152.5,2446.6
			 M3148.1,2444.4l-320-77.2l-23.7,290.1l1.5,2.7L3148.1,2444.4 M3824.5,2610.5l-657.4,34.9l14.3,273.2L3824.5,2610.5
			 M2611.5,2319.4l-50.5,494.8l238.5-150.3l0.5-5.8L2611.5,2319.4 M3162.9,2645.6l-60.7,3.2l-98.3,354.8l173.4-83.1L3162.9,2645.6
			 M3097.7,2649.1l-289.3,15.4l190.2,341.8l0.3-0.1L3097.7,2649.1 M3826.5,2614.2l-644.9,309l21,403.1L3826.5,2614.2 M2804.3,2665.9
			L2562,2818.6l616.9,520.5L2804.3,2665.9 M3177.5,2925.2l-176.9,84.8l186.1,334.5l11.9-13.6L3177.5,2925.2 M3743.7,2715.2
			l-540.8,617.2l1.9,36.8L3743.7,2715.2 M3201.2,3380.4l-2.3-43.4l-13,14.8l-1.3-2.4l-626.4-528.6l-2.4,1.5l52-509.1L2276.2,2069
			l3.6-0.6l285.4-849.9l-0.3-6.1l1.6,2.1l0.9-2.6l1.8,6.1l559.4,711.6l7.5-1.2l-5.1,3.7l705,673.7l2.7,0.7l-0.4,0.5l1.5,0.7
			l-3.5,1.7L3201.2,3380.4 M2593.5,2292.2c-10.5,8.6-12,24.1-3.3,34.6c0.2,0.2,0.4,0.4,0.5,0.6c9.2,10.6,25.2,12.1,36.1,3.2
			c10.5-8.7,12-24.2,3.3-34.7c-0.2-0.2-0.4-0.4-0.5-0.6C2620.4,2284.8,2604.4,2283.4,2593.5,2292.2z M2814.8,2349.7
			c-8.1,6.7-9.3,18.8-2.6,26.9c0.1,0.2,0.3,0.3,0.4,0.5c7.1,8.3,19.6,9.4,28.1,2.5c8.1-6.7,9.3-18.8,2.6-26.9
			c-0.1-0.2-0.3-0.3-0.4-0.5C2835.7,2344,2823.3,2342.9,2814.8,2349.7L2814.8,2349.7z M2790.1,2636.6c-10.9,9-12.4,25.1-3.4,35.9
			c0.2,0.2,0.4,0.4,0.6,0.7c9.5,11,26.1,12.5,37.4,3.3c10.9-9,12.4-25.1,3.4-35.9c-0.2-0.2-0.4-0.4-0.6-0.6
			C2818,2629,2801.4,2627.5,2790.1,2636.6L2790.1,2636.6z M2269.8,2044.2c-13.4,11-15.3,30.8-4.2,44.2c0.2,0.3,0.5,0.5,0.7,0.8
			c11.8,13.6,32.4,15.4,46,4.1c13.4-11,15.3-30.8,4.2-44.2c-0.2-0.3-0.5-0.6-0.7-0.8C2304.2,2034.8,2283.8,2033,2269.8,2044.2
			L2269.8,2044.2z M2544.2,2803.7c-10.8,8.9-12.4,25-3.4,35.8c0.2,0.2,0.4,0.4,0.6,0.7c9.5,11,26,12.5,37.3,3.3
			c10.8-9,12.4-25,3.4-35.9c-0.2-0.2-0.4-0.4-0.6-0.7C2572.1,2796,2555.5,2794.5,2544.2,2803.7L2544.2,2803.7z M2826.4,2118.5
			c-10.8,9-12.4,25-3.4,35.8c0.2,0.2,0.4,0.4,0.6,0.7c9.5,11,26,12.5,37.3,3.3c10.8-9,12.4-25,3.4-35.9c-0.2-0.2-0.4-0.4-0.5-0.6
			C2854.3,2110.8,2837.7,2109.3,2826.4,2118.5L2826.4,2118.5z M2985.5,2994.9c-9.3,7.7-10.6,21.5-2.9,30.8c0.2,0.2,0.3,0.4,0.5,0.5
			c8.2,9.4,22.4,10.7,32.1,2.9c9.3-7.7,10.6-21.5,2.9-30.8c-0.2-0.2-0.3-0.4-0.5-0.5C3009.4,2988.3,2995.2,2987,2985.5,2994.9
			L2985.5,2994.9z M2555.7,1205.6c-9.3,7.7-10.6,21.5-2.9,30.8c0.1,0.2,0.3,0.4,0.5,0.5c8.2,9.5,22.4,10.7,32.1,2.9
			c9.3-7.7,10.6-21.5,2.9-30.8c-0.2-0.2-0.3-0.4-0.5-0.6C2579.6,1199,2565.4,1197.7,2555.7,1205.6z M3141.6,2431
			c-7.8,6.4-8.9,17.9-2.4,25.7c0.1,0.2,0.3,0.3,0.4,0.5c6.8,7.9,18.6,8.9,26.7,2.4c7.8-6.4,8.9-17.9,2.4-25.7
			c-0.1-0.2-0.3-0.3-0.4-0.5C3161.5,2425.5,3149.7,2424.5,3141.6,2431z"/>
		<path id="Shape-2" class="st3" d="M2074.5,1611.5l-623.2-482.2l-232.4,229.9L2074.5,1611.5 M2072.9,1604.8l-477-618.6l-141.5,140
			L2072.9,1604.8 M1451,1123.6l139.5-138l-257.1,47L1451,1123.6 M1219.7,1352.5l228.3-225.9l-120.2-93l-0.5,0.1l0,0l-2.3,0.4
			l-13.2,40L1219.7,1352.5 M1214.1,1355.8l106-320.8l-316.7,54.9L1214.1,1355.8 M1209.9,1357.4l-211.2-266.7l-738.5,128.1
			L1209.9,1357.4 M2079.3,1606.1L1823.5,761l-223.4,221.1l0.3,1.8l-0.8,0.2L2079.3,1606.1 M893.6,962.5l0.3-0.6l-627.7,251.6
			L995.7,1087l-99.4-125.5L893.6,962.5 M1321.6,1030.4l1.3-3.9l-113.5-190.9l-309,124.2l100.1,126.4L1321.6,1030.4 M1591.9,981.1
			l-174.6-226.5l-89.7,271.4l1.8,3.1L1591.9,981.1 M1596.3,979.9l223.1-220.8l-398.6-6.7L1596.3,979.9 M1324.7,1021.2l88.4-267.4
			L1213.4,834L1324.7,1021.2 M891.8,957.7l-1.3-3.5L772.2,804.8l-512.7,406.9l633.7-254l-0.3-0.4L891.8,957.7 M885.9,941.5
			L822,765.2l-46.5,36.9L885.9,941.5 M1211.2,830.2l200.1-80.2l-345.9-165L1211.2,830.2 M896.7,955.1L1049.1,585L825.6,762.4
			l68.7,189.7L896.7,955.1 M901.6,954.3l305.6-122.5l-148.8-250.2l-2.7-1.3L901.6,954.3 M253.9,1210.8l515.6-409.3L599.7,587.1
			L253.9,1210.8 M1411.3,745.3l-245.5-432.5l-107.3,260.6l3,5L1411.3,745.3 M772.9,798.9l47.6-37.8L695.1,414.9L601.9,583
			L772.9,798.9 M824.1,758.2l227-180.1l-353-168.5l-0.1,0.3L824.1,758.2 M250.1,1208.9l346.7-625.4L346.2,267.1L250.1,1208.9
			 M1053.4,574.6l109.1-264.8l-804.4-67L1053.4,574.6 M599.1,579.4l95.1-171.6L348.7,243l-1.8,18L599.1,579.4 M259.1,1078.6
			l83.3-816.3l-22.9-28.9L259.1,1078.6 M316,222.1l27,34l2-19.6l2.4,1.2l816.7,68l1.1-2.6l252.5,445l411.7,6.9l-2.6,2.6l259.7,858.1
			l3.8,4.8l-2.5-0.7l0.8,2.6l-5-3.9l-868.2-256l-5.4,5.3l2-6l-964.8-140.6l-2.6,1.1l0.1-0.7l-1.7,0.3l1.9-3.4L316,222.1
			 M1441.7,757.1c3.5-13.1-4.2-26.6-17.3-30.2c-0.3-0.1-0.5-0.1-0.8-0.2c-13.7-3.3-27.5,4.7-31.3,18.3c-3.5,13.1,4.2,26.6,17.4,30.2
			c0.3,0.1,0.5,0.1,0.8,0.2C1424.1,778.7,1438,770.6,1441.7,757.1z M1228,838.4c2.7-10.2-3.3-20.7-13.5-23.5
			c-0.2-0.1-0.4-0.1-0.6-0.2c-10.6-2.6-21.4,3.7-24.3,14.2c-2.7,10.2,3.3,20.7,13.5,23.4c0.2,0.1,0.4,0.1,0.6,0.2
			C1214.3,855.2,1225.1,848.9,1228,838.4z M1082,590.2c3.7-13.6-4.4-27.6-18-31.3c-0.3-0.1-0.6-0.1-0.8-0.2
			c-14.1-3.5-28.5,4.9-32.4,18.9c-3.7,13.6,4.4,27.6,18,31.3c0.3,0.1,0.5,0.1,0.8,0.2C1063.7,612.7,1078,604.3,1082,590.2z
			 M1849.2,771.7c4.5-16.7-5.4-34-22.2-38.5c-0.3-0.1-0.7-0.2-1-0.3c-17.4-4.3-35.3,6.2-39.9,23.3c-4.5,16.7,5.4,34,22.2,38.5
			c0.3,0.1,0.7,0.2,1,0.3C1826.7,799.3,1844.6,788.9,1849.2,771.7z M1185.6,311.6c3.7-13.6-4.4-27.5-18-31.2
			c-0.3-0.1-0.6-0.1-0.9-0.2c-14.1-3.5-28.4,4.9-32.4,18.9c-3.7,13.6,4.4,27.6,18,31.2c0.3,0.1,0.6,0.1,0.8,0.2
			C1167.4,334,1181.7,325.6,1185.6,311.6z M1352.5,1033.6c3.7-13.6-4.4-27.6-18-31.2c-0.3-0.1-0.6-0.1-0.8-0.2
			c-14.1-3.5-28.5,4.9-32.4,18.9c-3.6,13.6,4.4,27.6,18,31.2c0.3,0.1,0.5,0.1,0.8,0.2C1334.3,1056,1348.6,1047.6,1352.5,1033.6z
			 M715.2,411.4c3.1-11.7-3.8-23.7-15.5-26.8c-0.2-0.1-0.5-0.1-0.7-0.2c-12.1-3-24.4,4.2-27.8,16.3c-3.1,11.7,3.8,23.7,15.5,26.8
			c0.2,0.1,0.5,0.1,0.7,0.2C699.5,430.7,711.8,423.5,715.2,411.4z M2102.1,1620.9c3.1-11.7-3.8-23.7-15.5-26.8
			c-0.2-0.1-0.5-0.1-0.7-0.2c-12.1-3-24.5,4.2-27.8,16.3c-3.1,11.7,3.8,23.7,15.5,26.8c0.2,0.1,0.5,0.1,0.7,0.2
			C2086.4,1640.1,2098.7,1632.9,2102.1,1620.9z M914.6,961.5c2.6-9.7-3.2-19.7-12.9-22.3c-0.2-0.1-0.4-0.1-0.6-0.1
			c-10.1-2.5-20.4,3.5-23.2,13.5c-2.6,9.7,3.2,19.7,12.9,22.3c0.2,0.1,0.4,0.1,0.6,0.1C901.5,977.5,911.8,971.5,914.6,961.5z"/>
		<path id="Shape-3" class="st4" d="M3010.7,1432.8L3496.5,985l-165.8-213.6L3010.7,1432.8 M3016.5,1432.2l583.1-314.3l-101-130.1
			L3016.5,1432.2 M3501.3,985.4l99.5,128.2l-7.8-212.7L3501.3,985.4 M3336.2,772.8l162.9,209.9l93.7-86.4v-0.4l0,0l-0.1-1.9
			l-32.3-15.2L3336.2,772.8 M3334.1,767.9L3592.6,890l-7.1-261.7L3334.1,767.9 M3333.3,764.4l252-140l-16.7-610.2L3333.3,764.4
			 M3014.7,1437.2l747.4-110.1l-159.4-205.4h-1.5v-0.7L3014.7,1437.2 M3707,554.2l0.5,0.3l-135-534.9l16.5,602.8l118.6-65.9
			L3707,554.2 M3596.3,891.7l3.1,1.5l175.8-69.8L3708.4,560L3589,626.3L3596.3,891.7 M3604.4,1115.3l213.5-115.1L3599.3,897
			l-2.9,1.1L3604.4,1115.3 M3605,1119l159.2,205.1l55.2-320.7L3605,1119 M3603.8,895.3L3819.2,997l-43.1-170.2L3603.8,895.3
			 M3711.3,553.3l3.2-0.6l141.2-78.4L3574.9,14.5l136.3,540.1l0.3-0.2L3711.3,553.3 M3725.8,550.4L3883,519l-25.5-41.7L3725.8,550.4
			 M3779.5,825.4l43.1,170.5l182.7-260.2L3779.5,825.4 M3712.9,557.5l294.5,165.2l-122.5-200.5L3715.7,556L3712.9,557.5
			 M3712.9,561.6l65.7,260.4l230.4-91.5l1.5-2.1L3712.9,561.6 M3576.3,10l282.5,462.5l202.6-112.6L3576.3,10 M3826.6,996.5
			l396.8-148.7L4016,731.5l-4.6,1.8L3826.6,996.5 M3860.6,475.5l26.1,42.7l308.7-61.7l-130.8-94.3L3860.6,475.5 M3888.6,521.4
			L4012.9,725l186.5-265.6l-0.2-0.1L3888.6,521.4 M3578.3,7.1L4064.8,358l299-166.1L3578.3,7.1 M4015.6,727.3l210.7,118.1
			l156.6-641.2L4015.6,727.3 M4068,360.3l133.5,96.3L4384,196.7l-15-3.5L4068,360.3 M3687.6,29.2l680.8,160.2l27.3-15.2L3687.6,29.2
			 M4405.7,172.7l-32.2,17.9l16.4,3.9l-1.3,1.8l-159.1,651l2.1,1.2l-408.2,153l-57,331.2l-1.8-2.4l-758.9,111.8l-4.6,2.5l0.9-1.9
			l-2.3,0.3l3.9-3.6l324.6-671.1l-3.8-4.9l4.8,2.3L3568.3,3.5l-0.6-2.2l0.6,0.1V0l2.6,1.9L4405.7,172.7 M3812.8,1019.7
			c10.9,4.4,23.4-0.6,28-11.2c4.5-10.6-0.7-22.9-11.6-27.3c-10.9-4.4-23.4,0.6-27.9,11.2C3796.7,1003.1,3801.9,1015.3,3812.8,1019.7
			L3812.8,1019.7z M3770.5,838.1c8.5,3.5,18.2-0.4,21.7-8.7s-0.5-17.8-9-21.2c-8.5-3.5-18.2,0.4-21.7,8.7
			C3758,825.1,3762,834.6,3770.5,838.1L3770.5,838.1z M3998.8,748.6c11.3,4.6,24.3-0.6,29-11.6s-0.7-23.7-12-28.3
			c-11.3-4.6-24.3,0.6-29,11.6l0,0C3982.1,731.3,3987.5,743.9,3998.8,748.6z M3749.8,1346.7c13.9,5.7,29.9-0.7,35.7-14.3
			c5.8-13.6-0.9-29.2-14.8-34.8c-13.9-5.7-29.9,0.7-35.7,14.3C3729.2,1325.4,3735.8,1341,3749.8,1346.7L3749.8,1346.7z
			 M4221.8,863.9c11.3,4.6,24.3-0.6,29-11.6c4.7-11-0.7-23.7-12-28.3c-11.3-4.6-24.3,0.6-29,11.6l0,0
			C4205.2,846.6,4210.5,859.3,4221.8,863.9L4221.8,863.9z M3589.7,916.3c11.3,4.6,24.3-0.6,28.9-11.6c4.7-11-0.7-23.7-12-28.3
			c-11.3-4.6-24.2,0.6-28.9,11.6C3573.1,899,3578.4,911.6,3589.7,916.3L3589.7,916.3L3589.7,916.3z M4195.8,473.1
			c9.7,3.9,20.8-0.5,24.9-10c4-9.5-0.6-20.3-10.3-24.3c-9.7-3.9-20.8,0.5-24.8,10C4181.5,458.2,4186.1,469.1,4195.8,473.1
			L4195.8,473.1z M2999.3,1453.9c9.7,4,20.8-0.5,24.9-10c4-9.5-0.6-20.3-10.3-24.3s-20.8,0.5-24.9,10l0,0
			C2985,1439.1,2989.6,1450,2999.3,1453.9z M3705.3,571.2c8.1,3.3,17.4-0.4,20.7-8.3c3.3-7.9-0.5-16.9-8.6-20.2
			c-8.1-3.3-17.4,0.4-20.7,8.3C3693.3,558.9,3697.2,568,3705.3,571.2z"/>
	</g>
</g>
</svg>
